<svg width="28" height="28" viewBox="0 0 28 28" fill="none" xmlns="http://www.w3.org/2000/svg">
<path d="M22.1667 17.5C19.5883 17.5 17.5 19.5883 17.5 22.1667C17.5 23.0417 17.745 23.87 18.1767 24.57C18.588 25.2612 19.1722 25.8335 19.8718 26.2303C20.5714 26.6272 21.3623 26.835 22.1667 26.8333C23.87 26.8333 25.3517 25.9233 26.1567 24.57C26.5883 23.87 26.8333 23.0417 26.8333 22.1667C26.8333 19.5883 24.745 17.5 22.1667 17.5ZM24.5817 21.665L22.0967 23.9633C21.9333 24.115 21.7117 24.1967 21.5017 24.1967C21.28 24.1967 21.0583 24.115 20.8833 23.94L19.7283 22.785C19.5656 22.6203 19.4743 22.3982 19.4743 22.1667C19.4743 21.9352 19.5656 21.713 19.7283 21.5483C20.0667 21.21 20.6267 21.21 20.965 21.5483L21.525 22.1083L23.3917 20.3817C23.7417 20.055 24.3017 20.0783 24.6283 20.4283C24.955 20.7783 24.9317 21.3267 24.5817 21.665Z" fill="#333333"/>
<path d="M25.6668 8.80602V9.33102C25.6668 9.97269 25.1418 10.4977 24.5002 10.4977H3.50016C2.8585 10.4977 2.3335 9.97269 2.3335 9.33102V8.79436C2.3335 6.12269 4.49183 3.96436 7.1635 3.96436H20.8252C23.4968 3.96436 25.6668 6.13436 25.6668 8.80602Z" fill="#333333"/>
<path d="M2.3335 13.4144V19.201C2.3335 21.8727 4.49183 24.031 7.1635 24.031H14.4668C15.1435 24.031 15.7268 23.4594 15.6685 22.7827C15.5052 20.9977 16.0768 19.061 17.6635 17.521C18.3168 16.8794 19.1218 16.3894 19.9968 16.1094C21.4552 15.6427 22.8668 15.701 24.1152 16.121C24.2907 16.1824 24.4783 16.2009 24.6624 16.1751C24.8465 16.1492 25.0217 16.0797 25.1735 15.9724C25.3253 15.8651 25.4493 15.7231 25.5351 15.5582C25.6209 15.3933 25.6661 15.2103 25.6668 15.0244V13.4027C25.6668 12.761 25.1418 12.236 24.5002 12.236H3.50016C2.8585 12.2477 2.3335 12.7727 2.3335 13.4144ZM9.3335 20.1227H7.00016C6.52183 20.1227 6.12516 19.726 6.12516 19.2477C6.12516 18.7694 6.52183 18.3727 7.00016 18.3727H9.3335C9.81183 18.3727 10.2085 18.7694 10.2085 19.2477C10.2085 19.726 9.81183 20.1227 9.3335 20.1227Z" fill="#333333"/>
</svg>
