<svg width="134" height="22" viewBox="0 0 134 22" fill="none" xmlns="http://www.w3.org/2000/svg">
<path d="M10.9723 20.1668C16.0351 20.1668 20.139 16.0629 20.139 11.0002C20.139 5.93741 16.0351 1.8335 10.9723 1.8335C5.90958 1.8335 1.80566 5.93741 1.80566 11.0002C1.80566 16.0629 5.90958 20.1668 10.9723 20.1668V20.1668Z" stroke="#828282" stroke-width="1.5" stroke-linecap="round" stroke-linejoin="round"/>
<path d="M11 15.125C12.094 15.125 13.1432 14.6904 13.9168 13.9168C14.6904 13.1432 15.125 12.094 15.125 11C15.125 9.90598 14.6904 8.85677 13.9168 8.08318C13.1432 7.3096 12.094 6.875 11 6.875C9.90598 6.875 8.85677 7.3096 8.08318 8.08318C7.3096 8.85677 6.875 9.90598 6.875 11C6.875 12.094 7.3096 13.1432 8.08318 13.9168C8.85677 14.6904 9.90598 15.125 11 15.125V15.125Z" stroke="#828282" stroke-width="1.5" stroke-linecap="round" stroke-linejoin="round"/>
<path d="M4.49121 4.51953L7.73621 7.75536" stroke="#828282" stroke-width="1.5" stroke-linecap="round" stroke-linejoin="round"/>
<path d="M4.4917 17.4809L7.7367 14.2451" stroke="#828282" stroke-width="1.5" stroke-linecap="round" stroke-linejoin="round"/>
<path d="M17.4623 17.4809L14.2173 14.2451" stroke="#828282" stroke-width="1.5" stroke-linecap="round" stroke-linejoin="round"/>
<path d="M17.4623 4.51953L14.2173 7.75536" stroke="#828282" stroke-width="1.5" stroke-linecap="round" stroke-linejoin="round"/>
<path d="M34.52 13.0923C34.6445 14.96 36.1973 16.1758 38.4385 16.1758C40.8701 16.1758 42.3936 14.9673 42.3936 13.0337C42.3936 11.5176 41.5073 10.6753 39.3174 10.126L38.2114 9.83301C36.7759 9.45947 36.1899 8.9834 36.1899 8.18506C36.1899 7.15234 37.1421 6.44189 38.5117 6.44189C39.8887 6.44189 40.8042 7.1377 40.9214 8.27295H42.2397C42.1812 6.50049 40.6577 5.25537 38.5557 5.25537C36.3584 5.25537 34.8203 6.48584 34.8203 8.24365C34.8203 9.6792 35.6846 10.5361 37.6328 11.0342L38.9878 11.3857C40.4087 11.752 41.0312 12.3013 41.0312 13.1948C41.0312 14.2349 39.9912 14.9893 38.563 14.9893C37.0542 14.9893 35.9702 14.2349 35.8457 13.0923H34.52ZM53.7238 8.38281H52.4641L50.9406 14.5791H50.9113L49.1828 8.38281H47.9523L46.2312 14.5791H46.2019L44.6784 8.38281H43.4113L45.5427 16H46.8391L48.5529 10.104H48.5822L50.3034 16H51.5998L53.7238 8.38281ZM55.1371 16H56.4115V8.38281H55.1371V16ZM55.7743 7.10107C56.2138 7.10107 56.5727 6.74219 56.5727 6.31006C56.5727 5.87061 56.2138 5.51904 55.7743 5.51904C55.3422 5.51904 54.9833 5.87061 54.9833 6.31006C54.9833 6.74219 55.3422 7.10107 55.7743 7.10107ZM58.4327 16H59.7071V11.2246C59.7071 10.1699 60.4396 9.37891 61.4503 9.37891C62.3951 9.37891 63.0104 9.97949 63.0104 10.895V16H64.2848V11.1587C64.2848 10.126 64.9952 9.37891 66.006 9.37891C67.0094 9.37891 67.588 9.99414 67.588 11.0342V16H68.8624V10.7412C68.8624 9.23242 67.8883 8.25098 66.3795 8.25098C65.3102 8.25098 64.4166 8.79297 63.9918 9.70117H63.9625C63.6329 8.77832 62.8639 8.25098 61.8238 8.25098C60.7984 8.25098 60.0221 8.79297 59.6632 9.59863H59.6339V8.38281H58.4327V16ZM70.7884 16H72.0628V11.2246C72.0628 10.1699 72.7952 9.37891 73.806 9.37891C74.7508 9.37891 75.366 9.97949 75.366 10.895V16H76.6404V11.1587C76.6404 10.126 77.3509 9.37891 78.3616 9.37891C79.365 9.37891 79.9437 9.99414 79.9437 11.0342V16H81.2181V10.7412C81.2181 9.23242 80.2439 8.25098 78.7352 8.25098C77.6658 8.25098 76.7723 8.79297 76.3475 9.70117H76.3182C75.9886 8.77832 75.2195 8.25098 74.1795 8.25098C73.1541 8.25098 72.3777 8.79297 72.0188 9.59863H71.9896V8.38281H70.7884V16ZM83.21 16H84.4844V8.38281H83.21V16ZM83.8472 7.10107C84.2866 7.10107 84.6455 6.74219 84.6455 6.31006C84.6455 5.87061 84.2866 5.51904 83.8472 5.51904C83.415 5.51904 83.0562 5.87061 83.0562 6.31006C83.0562 6.74219 83.415 7.10107 83.8472 7.10107ZM86.5056 16H87.78V11.5176C87.78 10.2285 88.5637 9.37891 89.7648 9.37891C90.9367 9.37891 91.5153 10.0527 91.5153 11.2832V16H92.7897V11.0562C92.7897 9.32764 91.8229 8.25098 90.153 8.25098C88.9738 8.25098 88.1608 8.77832 87.736 9.59863H87.7067V8.38281H86.5056V16ZM97.8139 14.938C96.5028 14.938 95.6459 13.8687 95.6459 12.1621C95.6459 10.4556 96.5028 9.37158 97.8139 9.37158C99.1395 9.37158 100.026 10.4849 100.026 12.1621C100.026 13.8394 99.1395 14.938 97.8139 14.938ZM97.8578 18.8711C99.9599 18.8711 101.3 17.6626 101.3 15.8462V8.38281H100.084V9.66455H100.062C99.557 8.77832 98.6635 8.25098 97.5868 8.25098C95.6166 8.25098 94.3422 9.77441 94.3422 12.1621C94.3422 14.5278 95.6166 16.0586 97.5575 16.0586C98.6269 16.0586 99.5277 15.5166 99.9965 14.689H100.026V15.8901C100.026 17.0254 99.2274 17.7871 97.9091 17.7871C96.9569 17.7871 96.2025 17.3257 95.9535 16.6299H94.6425C94.8549 17.9263 96.1806 18.8711 97.8578 18.8711ZM110.338 8.25098C109.232 8.25098 108.346 8.81494 107.877 9.67188H107.847V8.38281H106.639V18.5415H107.913V14.7622H107.943C108.397 15.5972 109.276 16.1318 110.367 16.1318C112.286 16.1318 113.597 14.5791 113.597 12.1914C113.597 9.80371 112.279 8.25098 110.338 8.25098ZM110.089 15.0112C108.785 15.0112 107.906 13.8906 107.906 12.1914C107.906 10.4995 108.785 9.37158 110.089 9.37158C111.444 9.37158 112.293 10.4702 112.293 12.1914C112.293 13.9199 111.444 15.0112 110.089 15.0112ZM118.343 16.1318C120.445 16.1318 121.866 14.6157 121.866 12.1914C121.866 9.75977 120.445 8.25098 118.343 8.25098C116.233 8.25098 114.812 9.75977 114.812 12.1914C114.812 14.6157 116.233 16.1318 118.343 16.1318ZM118.343 15.0112C116.995 15.0112 116.109 13.9858 116.109 12.1914C116.109 10.397 116.995 9.37158 118.343 9.37158C119.69 9.37158 120.569 10.397 120.569 12.1914C120.569 13.9858 119.69 15.0112 118.343 15.0112ZM126.612 16.1318C128.714 16.1318 130.134 14.6157 130.134 12.1914C130.134 9.75977 128.714 8.25098 126.612 8.25098C124.502 8.25098 123.081 9.75977 123.081 12.1914C123.081 14.6157 124.502 16.1318 126.612 16.1318ZM126.612 15.0112C125.264 15.0112 124.378 13.9858 124.378 12.1914C124.378 10.397 125.264 9.37158 126.612 9.37158C127.959 9.37158 128.838 10.397 128.838 12.1914C128.838 13.9858 127.959 15.0112 126.612 15.0112ZM131.789 16H133.064V5.43115H131.789V16Z" fill="#4F4F4F"/>
</svg>
