<svg width="82" height="20" viewBox="0 0 82 20" fill="none" xmlns="http://www.w3.org/2000/svg">
<g clip-path="url(#clip0_4_3905)">
<path d="M9.99995 14.1666L5.10162 17.1583L6.43328 11.575L2.07495 7.84165L7.79578 7.38331L9.99995 2.08331L12.2041 7.38331L17.9258 7.84165L13.5666 11.575L14.8983 17.1583L9.99995 14.1666Z" fill="#F2994A"/>
</g>
<g clip-path="url(#clip1_4_3905)">
<path d="M28 14.1666L23.1016 17.1583L24.4333 11.575L20.075 7.84165L25.7958 7.38331L28 2.08331L30.2041 7.38331L35.9258 7.84165L31.5666 11.575L32.8983 17.1583L28 14.1666Z" fill="#F2994A"/>
</g>
<g clip-path="url(#clip2_4_3905)">
<path d="M46 14.1666L41.1016 17.1583L42.4333 11.575L38.075 7.84165L43.7958 7.38331L46 2.08331L48.2041 7.38331L53.9258 7.84165L49.5666 11.575L50.8983 17.1583L46 14.1666Z" fill="#F2994A"/>
</g>
<g clip-path="url(#clip3_4_3905)">
<path d="M64 14.1666L59.1016 17.1583L60.4333 11.575L56.075 7.84165L61.7958 7.38331L64 2.08331L66.2041 7.38331L71.9258 7.84165L67.5666 11.575L68.8983 17.1583L64 14.1666Z" fill="#F2994A"/>
</g>
<g clip-path="url(#clip4_4_3905)">
<path d="M82 14.1666L77.1016 17.1583L78.4333 11.575L74.075 7.84165L79.7958 7.38331L82 2.08331L84.2041 7.38331L89.9258 7.84165L85.5666 11.575L86.8983 17.1583L82 14.1666Z" fill="#F2994A"/>
</g>
<defs>
<clipPath id="clip0_4_3905">
<rect width="20" height="20" fill="white"/>
</clipPath>
<clipPath id="clip1_4_3905">
<rect width="20" height="20" fill="white" transform="translate(18)"/>
</clipPath>
<clipPath id="clip2_4_3905">
<rect width="20" height="20" fill="white" transform="translate(36)"/>
</clipPath>
<clipPath id="clip3_4_3905">
<rect width="20" height="20" fill="white" transform="translate(54)"/>
</clipPath>
<clipPath id="clip4_4_3905">
<rect width="10" height="20" fill="white" transform="translate(72)"/>
</clipPath>
</defs>
</svg>
