<svg width="20" height="21" viewBox="0 0 20 21" fill="none" xmlns="http://www.w3.org/2000/svg">
<path d="M9.9999 11.6917C10.3413 11.6917 10.6794 11.6244 10.9949 11.4938C11.3103 11.3631 11.5969 11.1716 11.8384 10.9301C12.0798 10.6887 12.2713 10.4021 12.402 10.0866C12.5327 9.7712 12.5999 9.43311 12.5999 9.09167C12.5999 8.75023 12.5327 8.41214 12.402 8.09669C12.2713 7.78125 12.0798 7.49462 11.8384 7.25319C11.5969 7.01176 11.3103 6.82024 10.9949 6.68958C10.6794 6.55892 10.3413 6.49167 9.9999 6.49167C9.31034 6.49167 8.64902 6.7656 8.16142 7.25319C7.67383 7.74079 7.3999 8.40211 7.3999 9.09167C7.3999 9.78123 7.67383 10.4426 8.16142 10.9301C8.64902 11.4177 9.31034 11.6917 9.9999 11.6917V11.6917Z" stroke="#828282" stroke-width="1.5"/>
<path d="M3.01675 7.57499C4.65842 0.358325 15.3501 0.366659 16.9834 7.58333C17.9417 11.8167 15.3084 15.4 13.0001 17.6167C12.1935 18.3946 11.1165 18.8293 9.99592 18.8293C8.87529 18.8293 7.79835 18.3946 6.99175 17.6167C4.69175 15.4 2.05842 11.8083 3.01675 7.57499V7.57499Z" stroke="#828282" stroke-width="1.5"/>
</svg>
