<svg width="259" height="44" viewBox="0 0 259 44" fill="none" xmlns="http://www.w3.org/2000/svg">
<rect x="0.5" y="0.5" width="258" height="43" rx="3.5" fill="white"/>
<path d="M21.1667 27.3333C24.8486 27.3333 27.8333 24.3486 27.8333 20.6667C27.8333 16.9848 24.8486 14 21.1667 14C17.4848 14 14.5 16.9848 14.5 20.6667C14.5 24.3486 17.4848 27.3333 21.1667 27.3333Z" stroke="#4F4F4F" stroke-width="1.5" stroke-linecap="round" stroke-linejoin="round"/>
<path d="M29.5 29L25.875 25.375" stroke="#4F4F4F" stroke-width="1.5" stroke-linecap="round" stroke-linejoin="round"/>
<path d="M45.623 19.7998C46.7441 19.7998 47.4893 20.6475 47.5166 21.8369H43.6543C43.7295 20.6543 44.5088 19.7998 45.623 19.7998ZM47.4893 23.9629C47.291 24.6328 46.6279 25.0908 45.7256 25.0908C44.4473 25.0908 43.6475 24.1953 43.6475 22.835V22.7666H48.7471V22.3154C48.7471 20.1621 47.5645 18.7676 45.6436 18.7676C43.6816 18.7676 42.4238 20.2646 42.4238 22.4727C42.4238 24.708 43.6611 26.123 45.6982 26.123C47.25 26.123 48.4531 25.207 48.6582 23.9629H47.4893ZM53.1218 25.0088C51.8982 25.0088 51.0984 24.0107 51.0984 22.418C51.0984 20.8252 51.8982 19.8135 53.1218 19.8135C54.3591 19.8135 55.1863 20.8525 55.1863 22.418C55.1863 23.9834 54.3591 25.0088 53.1218 25.0088ZM53.1628 28.6797C55.1247 28.6797 56.3757 27.5518 56.3757 25.8564V18.8906H55.2409V20.0869H55.2204C54.7488 19.2598 53.9148 18.7676 52.9099 18.7676C51.071 18.7676 49.8816 20.1895 49.8816 22.418C49.8816 24.626 51.071 26.0547 52.8825 26.0547C53.8806 26.0547 54.7214 25.5488 55.1589 24.7764H55.1863V25.8975C55.1863 26.957 54.4411 27.668 53.2107 27.668C52.322 27.668 51.6179 27.2373 51.3855 26.5879H50.1618C50.3601 27.7979 51.5974 28.6797 53.1628 28.6797ZM59.2123 26.0684C59.6498 26.0684 59.9916 25.7266 59.9916 25.2891C59.9916 24.8516 59.6498 24.5098 59.2123 24.5098C58.7748 24.5098 58.433 24.8516 58.433 25.2891C58.433 25.7266 58.7748 26.0684 59.2123 26.0684ZM68.4198 26C70.5184 26 71.7626 24.9678 71.7626 23.2314C71.7626 21.9189 70.9013 20.9756 69.5614 20.8047V20.75C70.5116 20.5791 71.2636 19.6221 71.2636 18.5967C71.2636 17.1201 70.122 16.1357 68.4335 16.1357H64.6942V26H68.4198ZM65.9247 17.2227H68.1532C69.3495 17.2227 70.0194 17.7627 70.0194 18.7402C70.0194 19.8066 69.2264 20.3877 67.7704 20.3877H65.9247V17.2227ZM65.9247 24.9131V21.4473H68.119C69.6913 21.4473 70.4979 22.0283 70.4979 23.1699C70.4979 24.3115 69.7186 24.9131 68.2352 24.9131H65.9247ZM76.1031 19.7998C77.2242 19.7998 77.9693 20.6475 77.9967 21.8369H74.1344C74.2096 20.6543 74.9889 19.7998 76.1031 19.7998ZM77.9693 23.9629C77.7711 24.6328 77.108 25.0908 76.2057 25.0908C74.9273 25.0908 74.1275 24.1953 74.1275 22.835V22.7666H79.2271V22.3154C79.2271 20.1621 78.0445 18.7676 76.1236 18.7676C74.1617 18.7676 72.9039 20.2646 72.9039 22.4727C72.9039 24.708 74.1412 26.123 76.1783 26.123C77.7301 26.123 78.9332 25.207 79.1383 23.9629H77.9693ZM83.055 25.1113C82.2005 25.1113 81.6331 24.667 81.6331 23.9902C81.6331 23.3203 82.18 22.8965 83.137 22.835L85.0374 22.7188V23.2998C85.0374 24.3252 84.1761 25.1113 83.055 25.1113ZM82.7884 26.123C83.7454 26.123 84.6478 25.5898 85.0716 24.7764H85.0989V26H86.2269V21.085C86.2269 19.6699 85.1741 18.7676 83.5062 18.7676C81.8245 18.7676 80.7718 19.7109 80.6898 20.9414H81.8382C81.9886 20.2441 82.5628 19.8135 83.4788 19.8135C84.4632 19.8135 85.0374 20.333 85.0374 21.2012V21.7959L83.0003 21.9121C81.3597 22.0078 80.4232 22.7734 80.4232 23.9902C80.4232 25.2686 81.3734 26.123 82.7884 26.123ZM93.9239 21.2217C93.7735 19.9434 92.7139 18.7676 90.9366 18.7676C88.9746 18.7676 87.669 20.2031 87.669 22.4453C87.669 24.7354 88.9815 26.123 90.9502 26.123C92.5635 26.123 93.753 25.125 93.9375 23.71H92.7686C92.5635 24.5645 91.9278 25.0771 90.9571 25.0771C89.7266 25.0771 88.8789 24.0996 88.8789 22.4453C88.8789 20.832 89.7129 19.8135 90.9434 19.8135C91.9893 19.8135 92.5909 20.4492 92.7618 21.2217H93.9239ZM95.3728 26H96.5623V21.8574C96.5623 20.627 97.2937 19.8203 98.4763 19.8203C99.5906 19.8203 100.158 20.4971 100.158 21.625V26H101.347V21.4062C101.347 19.8203 100.404 18.7676 98.8455 18.7676C97.7654 18.7676 96.9861 19.2324 96.5896 20.0254H96.5623V16.1357H95.3728V26ZM115.333 18.8906H114.157L112.736 24.6738H112.708L111.095 18.8906H109.946L108.34 24.6738H108.313L106.891 18.8906H105.708L107.697 26H108.907L110.507 20.4971H110.534L112.141 26H113.351L115.333 18.8906ZM119.441 19.7998C120.562 19.7998 121.308 20.6475 121.335 21.8369H117.473C117.548 20.6543 118.327 19.7998 119.441 19.7998ZM121.308 23.9629C121.109 24.6328 120.446 25.0908 119.544 25.0908C118.266 25.0908 117.466 24.1953 117.466 22.835V22.7666H122.565V22.3154C122.565 20.1621 121.383 18.7676 119.462 18.7676C117.5 18.7676 116.242 20.2646 116.242 22.4727C116.242 24.708 117.479 26.123 119.517 26.123C121.068 26.123 122.271 25.207 122.476 23.9629H121.308ZM123.925 20.8525C123.925 21.8232 124.541 22.4658 125.792 22.7871L127.043 23.1084C127.842 23.3203 128.136 23.5938 128.136 24.0996C128.136 24.7422 127.542 25.1523 126.578 25.1523C125.614 25.1523 125.053 24.7559 124.923 24.0176H123.734C123.857 25.2754 124.944 26.123 126.503 26.123C128.164 26.123 129.333 25.248 129.333 24.0107C129.333 22.9648 128.813 22.4453 127.378 22.083L126.277 21.8164C125.47 21.6113 125.094 21.2832 125.094 20.791C125.094 20.1689 125.669 19.7383 126.537 19.7383C127.412 19.7383 127.965 20.1621 128.048 20.8457H129.182C129.128 19.6426 128.048 18.7676 126.578 18.7676C125.012 18.7676 123.925 19.6357 123.925 20.8525ZM131.233 17.1748V18.8906H130.173V19.8682H131.233V24.1543C131.233 25.5215 131.739 26.0547 133.044 26.0547C133.325 26.0547 133.653 26.0342 133.796 26V25.002C133.714 25.0156 133.441 25.0361 133.304 25.0361C132.696 25.0361 132.422 24.7422 132.422 24.0928V19.8682H133.803V18.8906H132.422V17.1748H131.233ZM138.807 18.7676C137.774 18.7676 136.947 19.2939 136.51 20.0938H136.482V18.8906H135.355V28.3721H136.544V24.8447H136.571C136.995 25.624 137.816 26.123 138.834 26.123C140.625 26.123 141.849 24.6738 141.849 22.4453C141.849 20.2168 140.618 18.7676 138.807 18.7676ZM138.574 25.0771C137.357 25.0771 136.537 24.0312 136.537 22.4453C136.537 20.8662 137.357 19.8135 138.574 19.8135C139.839 19.8135 140.632 20.8389 140.632 22.4453C140.632 24.0586 139.839 25.0771 138.574 25.0771ZM145.677 25.1113C144.822 25.1113 144.255 24.667 144.255 23.9902C144.255 23.3203 144.802 22.8965 145.759 22.835L147.659 22.7188V23.2998C147.659 24.3252 146.798 25.1113 145.677 25.1113ZM145.41 26.123C146.367 26.123 147.269 25.5898 147.693 24.7764H147.721V26H148.848V21.085C148.848 19.6699 147.796 18.7676 146.128 18.7676C144.446 18.7676 143.393 19.7109 143.311 20.9414H144.46C144.61 20.2441 145.184 19.8135 146.1 19.8135C147.085 19.8135 147.659 20.333 147.659 21.2012V21.7959L145.622 21.9121C143.981 22.0078 143.045 22.7734 143.045 23.9902C143.045 25.2686 143.995 26.123 145.41 26.123ZM150.701 26H151.89V16.1357H150.701V26ZM153.777 26H154.966V21.543C154.966 20.5586 155.65 19.8203 156.593 19.8203C157.475 19.8203 158.049 20.3809 158.049 21.2354V26H159.239V21.4814C159.239 20.5176 159.902 19.8203 160.845 19.8203C161.781 19.8203 162.322 20.3945 162.322 21.3652V26H163.511V21.0918C163.511 19.6836 162.602 18.7676 161.194 18.7676C160.196 18.7676 159.362 19.2734 158.965 20.1211H158.938C158.63 19.2598 157.912 18.7676 156.942 18.7676C155.985 18.7676 155.26 19.2734 154.925 20.0254H154.898V18.8906H153.777V26Z" fill="#4F4F4F"/>
<rect x="0.5" y="0.5" width="258" height="43" rx="3.5" stroke="#E0E0E0"/>
</svg>
