<svg width="20" height="21" viewBox="0 0 20 21" fill="none" xmlns="http://www.w3.org/2000/svg">
<path d="M15.1166 18.5167C14.3833 18.7333 13.5166 18.8333 12.5 18.8333H7.49997C6.4833 18.8333 5.61663 18.7333 4.8833 18.5167C5.06663 16.35 7.29163 14.6417 9.99997 14.6417C12.7083 14.6417 14.9333 16.35 15.1166 18.5167V18.5167Z" stroke="#828282" stroke-width="1.5" stroke-linecap="round" stroke-linejoin="round"/>
<path d="M12.4998 2.16666H7.49984C3.33317 2.16666 1.6665 3.83332 1.6665 7.99999V13C1.6665 16.15 2.6165 17.875 4.88317 18.5167C5.0665 16.35 7.2915 14.6417 9.99984 14.6417C12.7082 14.6417 14.9332 16.35 15.1165 18.5167C17.3832 17.875 18.3332 16.15 18.3332 13V7.99999C18.3332 3.83332 16.6665 2.16666 12.4998 2.16666ZM9.99984 12.3083C8.34984 12.3083 7.0165 10.9667 7.0165 9.31666C7.0165 7.66666 8.34984 6.33332 9.99984 6.33332C11.6498 6.33332 12.9832 7.66666 12.9832 9.31666C12.9832 10.9667 11.6498 12.3083 9.99984 12.3083Z" stroke="#828282" stroke-width="1.5" stroke-linecap="round" stroke-linejoin="round"/>
<path d="M12.9831 9.31665C12.9831 10.9666 11.6498 12.3083 9.99981 12.3083C8.34981 12.3083 7.01648 10.9666 7.01648 9.31665C7.01648 7.66665 8.34981 6.33331 9.99981 6.33331C11.6498 6.33331 12.9831 7.66665 12.9831 9.31665Z" stroke="#828282" stroke-width="1.5" stroke-linecap="round" stroke-linejoin="round"/>
</svg>
